<svg version="1.0" xmlns="http://www.w3.org/2000/svg" width="32" height="36" viewBox="0 0 24 27"><path d="M6.8 1.6c-5 2.6-7.2 9.8-4.7 14.7 1.8 3.6 8.2 9.7 10 9.7 2.2 0 9.7-8.5 10.6-11.8 1.1-4.3-.9-9.4-4.6-11.9-3.9-2.6-7.4-2.9-11.3-.7zM17.7 4c.1 0 1 1.4 1.8 3.1 2.2 4.2 1.2 7.8-3.5 12.4l-4 3.9-3.9-3.8c-2.2-2.1-4.2-5-4.6-6.4C2 7 8.1 1.3 14.4 3.1c1.7.5 3.2.9 3.3.9z"/><path d="M8.2 7.2c-2 2-1.5 7.6.9 8.8 5.2 2.9 10.7-2.6 7.5-7.5-1.8-2.7-6.3-3.4-8.4-1.3zm6.6 3.1c.6 2.8-1.6 4.9-3.9 3.6-1.9-1-2.5-3.9-1.2-5.3 1.3-1.3 4.8-.1 5.1 1.7z"/></svg>