<?xml version="1.0" standalone="no"?>
<!DOCTYPE svg PUBLIC "-//W3C//DTD SVG 20010904//EN"
 "http://www.w3.org/TR/2001/REC-SVG-20010904/DTD/svg10.dtd">
<svg version="1.0" xmlns="http://www.w3.org/2000/svg"
 width="512.000000pt" height="512.000000pt" viewBox="0 0 512.000000 512.000000"
 preserveAspectRatio="xMidYMid meet">
<metadata>
Created by potrace 1.14, written by Peter Selinger 2001-2017
</metadata>
<g transform="translate(0.000000,512.000000) scale(0.100000,-0.100000)"
fill="#000000" stroke="none">
<path d="M2486 4674 c-185 -59 -307 -256 -276 -446 13 -84 60 -177 117 -233
l46 -44 -38 -83 c-21 -46 -71 -149 -112 -230 l-73 -148 -147 -98 c-362 -242
-601 -388 -650 -397 -10 -2 -18 -4 -18 -5 0 -1 -11 -3 -25 -5 -14 -2 -29 -5
-35 -7 -5 -1 -11 1 -13 6 -2 5 30 21 70 36 40 14 102 42 138 62 84 47 181 112
155 103 -21 -7 -306 -7 -314 0 -6 7 58 76 138 148 150 135 379 269 585 343
l79 28 55 113 c30 63 52 116 50 118 -7 8 -222 -53 -314 -88 -412 -159 -777
-468 -998 -844 l-48 -83 -429 0 -429 0 0 -945 0 -945 398 -1 397 0 57 -87
c315 -477 820 -810 1388 -914 154 -28 494 -31 645 -5 464 80 867 297 1190 639
87 93 218 260 259 330 l21 38 383 0 382 0 0 945 0 945 -377 0 -378 1 -43 78
c-61 111 -188 276 -295 385 -248 251 -554 432 -882 521 -95 26 -185 45 -185
39 0 -2 25 -55 57 -118 l56 -113 71 -22 c255 -78 498 -224 699 -420 l98 -96
-103 2 -103 2 30 -25 c54 -44 129 -91 200 -125 39 -19 72 -37 73 -42 2 -4 9
-4 14 -1 7 5 8 2 4 -5 -5 -7 -15 -9 -25 -6 -9 4 -25 8 -35 11 -38 7 -179 100
-278 182 -55 45 -113 89 -129 97 -48 25 -94 18 -217 -35 -160 -69 -151 -60
-124 -114 12 -26 28 -46 35 -46 9 0 13 -17 12 -59 l0 -59 -27 44 c-16 24 -28
49 -28 55 0 6 -12 30 -26 54 l-26 44 -59 -30 -60 -30 -122 97 c-67 54 -161
133 -209 176 l-86 78 -7 -112 c-4 -63 -6 -129 -4 -148 4 -47 -11 -159 -22
-166 -5 -3 -6 -10 -3 -16 4 -6 2 -8 -3 -5 -6 4 -14 35 -18 69 -4 35 -9 66 -11
70 -3 4 -6 88 -7 187 l-2 180 -29 30 c-16 17 -46 42 -67 57 -33 22 -45 25 -81
20 -24 -4 -67 -17 -96 -31 -28 -13 -52 -21 -52 -17 0 5 39 86 88 182 63 126
91 174 102 171 8 -2 41 -11 73 -20 l57 -16 0 -180 0 -181 33 -32 c18 -18 38
-32 44 -32 7 0 9 34 5 108 -2 60 -1 156 3 214 l7 106 51 13 c29 6 60 16 70 21
16 8 34 -24 158 -274 170 -342 244 -481 257 -486 26 -8 19 25 -27 116 -28 55
-48 102 -45 105 3 3 -20 56 -52 118 -31 63 -94 192 -140 287 l-82 174 38 34
c212 192 155 551 -107 672 -73 33 -218 41 -297 16z m257 -119 c59 -28 105 -74
136 -137 26 -51 31 -73 31 -133 0 -60 -5 -82 -30 -131 -16 -33 -41 -71 -54
-83 l-25 -23 -51 101 c-28 56 -52 119 -54 141 -2 21 -7 44 -11 50 -4 6 -2 17
5 25 10 12 12 95 2 123 -2 6 -10 12 -18 12 -8 0 -14 9 -14 20 0 13 -7 20 -20
20 -14 0 -20 7 -20 24 0 22 2 23 46 15 25 -5 60 -16 77 -24z m-140 5 c4 -15 0
-20 -14 -20 -11 0 -19 -7 -19 -16 0 -9 -8 -18 -19 -21 -27 -7 -37 -92 -16
-133 9 -16 12 -30 7 -30 -5 0 -8 -16 -7 -34 0 -24 -17 -70 -55 -146 l-56 -112
-34 38 c-115 132 -97 326 41 437 68 53 162 74 172 37z m37 -450 l0 -120 -30 0
-30 0 0 113 c0 63 3 117 7 120 3 4 17 7 30 7 23 0 23 -1 23 -120z m66 -1 l43
-90 -34 -15 c-47 -19 -53 -18 -58 14 -7 40 -7 195 0 188 3 -3 26 -47 49 -97z
m-140 -116 c-7 -7 -86 19 -86 28 0 5 19 47 43 94 l42 86 3 -102 c1 -56 1 -104
-2 -106z m72 -140 c3 -20 -1 -23 -27 -23 -27 0 -31 4 -31 26 0 22 4 25 28 22
19 -2 28 -9 30 -25z m2 -143 c0 -76 -2 -88 -15 -84 -8 4 -22 1 -30 -6 -13 -11
-15 0 -15 84 l0 96 30 0 30 0 0 -90z m-446 -262 c-25 -50 -51 -97 -58 -103 -6
-7 -45 -83 -86 -171 -40 -87 -81 -171 -89 -185 -16 -26 -16 -25 -17 32 -1 38
3 56 10 53 12 -4 138 255 141 291 5 44 55 125 93 149 20 14 40 25 45 25 4 1
-14 -40 -39 -91z m-1124 -813 l0 -125 -280 0 -280 0 0 -115 0 -115 250 0 250
0 0 -120 0 -120 -250 0 -250 0 0 -115 0 -115 295 0 295 0 0 -125 0 -125 -440
0 -440 0 0 600 0 600 425 0 425 0 0 -125z m520 -350 l0 -475 280 0 280 0 0
-125 0 -125 -425 0 -425 0 0 600 0 600 145 0 145 0 0 -475z m1060 -125 l0
-600 -145 0 -145 0 0 600 0 600 145 0 145 0 0 -600z m1200 475 l0 -125 -175 0
-175 0 0 -475 0 -475 -145 0 -145 0 0 475 0 475 -175 0 -175 0 -2 78 c-1 42
-2 93 -3 112 -1 19 0 41 3 48 3 9 112 12 498 12 l494 0 0 -125z m1050 0 l0
-125 -280 0 -280 0 0 -115 0 -115 250 0 250 0 0 -120 0 -120 -250 0 -250 0 0
-115 0 -115 295 0 295 0 0 -125 0 -125 -440 0 -440 0 0 600 0 600 425 0 425 0
0 -125z m-3850 -1270 c0 -72 1 -75 19 -65 55 29 81 0 81 -91 0 -55 -3 -69 -15
-69 -12 0 -15 14 -15 65 0 52 -4 67 -16 72 -33 12 -49 -11 -52 -76 -2 -45 -7
-61 -17 -61 -13 0 -15 26 -15 150 0 127 2 150 15 150 12 0 15 -15 15 -75z
m880 -27 l0 -102 33 32 c18 18 41 32 52 32 16 0 13 -6 -14 -34 l-34 -35 38
-45 c33 -41 35 -46 17 -46 -12 0 -32 15 -48 35 -14 19 -30 35 -35 35 -5 0 -9
-16 -9 -35 0 -24 -5 -35 -15 -35 -13 0 -15 23 -15 150 0 127 2 150 15 150 12
0 15 -18 15 -102z m598 56 c29 -20 28 -57 -2 -86 l-25 -23 28 -31 c26 -29 30
-30 44 -17 22 23 43 6 22 -17 -16 -18 -16 -21 5 -49 21 -30 21 -31 2 -31 -11
0 -25 6 -32 14 -10 13 -17 12 -49 -5 -31 -16 -43 -17 -69 -8 -59 21 -70 83
-23 127 27 24 28 29 15 46 -8 11 -14 30 -14 42 0 24 34 54 60 54 9 0 26 -7 38
-16z m975 -9 c7 -17 -8 -29 -28 -21 -17 6 -9 36 10 36 7 0 15 -7 18 -15z m907
-5 c0 -11 -6 -20 -14 -20 -18 0 -29 16 -21 30 11 18 35 11 35 -10z m-3480 -50
c0 -20 5 -30 15 -30 8 0 15 -7 15 -15 0 -8 -7 -15 -15 -15 -12 0 -15 -14 -15
-65 0 -51 -3 -65 -15 -65 -12 0 -15 14 -15 65 0 37 -4 65 -10 65 -5 0 -10 7
-10 15 0 8 5 15 10 15 6 0 10 14 10 30 0 20 5 30 15 30 10 0 15 -10 15 -30z
m-515 -45 c14 -13 25 -33 25 -45 0 -18 -6 -20 -60 -20 -64 0 -76 -12 -44 -44
20 -21 43 -20 66 1 12 11 22 13 28 7 17 -17 -27 -48 -67 -48 -44 0 -73 32 -73
81 0 43 15 72 43 83 37 15 57 11 82 -15z m193 9 c12 -8 22 -10 22 -5 0 6 7 11
15 11 12 0 15 -16 15 -80 0 -64 -3 -80 -15 -80 -8 0 -15 5 -15 10 0 6 -13 4
-29 -5 -51 -26 -97 4 -108 69 -5 30 -1 40 25 66 34 34 57 37 90 14z m225 10
c11 -11 -4 -33 -19 -27 -28 11 -44 -17 -44 -78 0 -46 -3 -59 -15 -59 -12 0
-15 16 -15 81 0 75 2 81 19 76 10 -2 25 -1 32 4 16 10 33 11 42 3z m576 -55
c12 28 28 51 36 51 21 0 19 -5 -24 -89 l-37 -73 -24 53 -23 54 -24 -55 -25
-55 -38 75 c-44 85 -46 90 -25 90 8 0 25 -20 37 -45 12 -25 25 -45 28 -45 3 0
14 23 25 51 l20 51 26 -57 26 -57 22 51z m242 35 c10 -9 21 -28 24 -43 22 -99
-122 -149 -161 -56 -36 87 68 161 137 99z m186 9 c2 -6 -10 -13 -27 -16 -30
-6 -30 -7 -30 -72 0 -58 -2 -65 -20 -65 -18 0 -20 7 -20 81 0 81 0 81 24 77
14 -3 31 -1 38 3 15 10 30 7 35 -8z m331 5 c19 -19 14 -29 -14 -26 -38 4 -40
-17 -4 -32 17 -7 35 -21 41 -32 25 -47 -32 -93 -78 -62 -32 20 -16 42 16 22
18 -11 23 -11 31 2 7 11 4 19 -13 32 -64 49 -68 57 -37 88 23 23 41 25 58 8z
m756 -9 c15 -12 26 -30 26 -45 0 -23 -3 -24 -60 -24 -64 0 -73 -9 -43 -42 20
-22 41 -23 64 -2 18 16 39 12 39 -7 0 -6 -15 -16 -34 -24 -62 -26 -116 12
-116 81 0 71 69 106 124 63z m210 8 c14 -10 20 -32 24 -85 4 -68 4 -72 -17
-72 -19 0 -21 5 -21 65 0 52 -4 67 -16 72 -33 12 -49 -11 -52 -76 -2 -45 -7
-61 -17 -61 -12 0 -15 17 -15 81 0 75 2 81 19 76 10 -2 25 -1 32 4 20 12 43
11 63 -4z m199 -1 c15 -8 27 -11 27 -5 0 5 7 9 16 9 25 0 16 -200 -10 -229
-37 -41 -136 -16 -136 34 0 22 28 18 35 -4 13 -40 69 -37 86 6 17 46 13 55
-20 38 -82 -42 -148 69 -82 136 33 33 45 35 84 15z m371 -2 c22 -22 23 -154 1
-154 -12 0 -15 14 -15 65 0 52 -4 67 -16 72 -33 12 -49 -11 -52 -76 -2 -45 -7
-61 -17 -61 -12 0 -15 17 -15 81 0 75 2 81 19 76 10 -2 25 -1 32 4 21 13 46
11 63 -7z m210 -6 c13 -13 27 -33 31 -45 6 -22 4 -23 -59 -23 -36 0 -66 -3
-66 -8 0 -4 7 -18 16 -30 18 -26 46 -28 68 -6 16 15 36 12 36 -7 0 -19 -67
-40 -94 -30 -86 33 -66 167 26 170 9 1 28 -9 42 -21z m211 -3 c14 -13 25 -33
25 -45 0 -18 -6 -20 -60 -20 -64 0 -76 -12 -44 -44 20 -21 43 -20 66 1 12 11
22 13 28 7 17 -17 -27 -48 -67 -48 -46 0 -73 32 -73 86 0 47 35 88 75 88 14 0
37 -11 50 -25z m188 19 c11 -11 -4 -33 -19 -27 -28 11 -44 -17 -44 -78 0 -46
-3 -59 -15 -59 -12 0 -15 16 -15 81 0 75 2 81 19 76 10 -2 25 -1 32 4 16 10
33 11 42 3z m295 -10 c19 -13 22 -24 22 -85 0 -55 -3 -69 -15 -69 -12 0 -15
14 -15 64 0 70 -7 81 -46 72 -22 -6 -24 -11 -24 -71 0 -58 -2 -65 -20 -65 -18
0 -20 7 -20 81 0 81 0 81 24 77 14 -3 31 -1 38 3 19 12 31 11 56 -7z m200 0
c12 -8 22 -10 22 -5 0 6 7 11 15 11 22 0 22 -196 -1 -228 -29 -42 -134 -20
-134 29 0 10 7 19 15 19 8 0 15 -7 15 -15 0 -24 43 -39 69 -26 15 9 21 21 21
47 l0 34 -25 -16 c-21 -14 -30 -14 -54 -5 -64 27 -69 136 -8 161 32 13 40 12
65 -6z m-1308 -74 c0 -64 -3 -80 -15 -80 -12 0 -15 16 -15 80 0 64 3 80 15 80
12 0 15 -16 15 -80z m910 0 c0 -64 -3 -80 -15 -80 -12 0 -15 16 -15 80 0 64 3
80 15 80 12 0 15 -16 15 -80z m-338 -218 c-42 -58 -189 -206 -281 -283 -266
-224 -552 -369 -876 -445 -163 -38 -430 -45 -604 -15 -323 55 -668 221 -952
460 -92 77 -239 225 -281 284 l-19 27 1516 0 1516 0 -19 -28z"/>
<path d="M2464 1366 c-8 -21 14 -56 31 -50 17 7 29 39 20 54 -9 15 -45 12 -51
-4z"/>
<path d="M2452 1250 c-26 -24 -28 -52 -6 -74 20 -21 37 -20 65 3 l23 19 -27
36 c-16 20 -29 36 -31 36 -1 0 -12 -9 -24 -20z"/>
<path d="M332 1268 c-21 -21 -13 -28 33 -28 25 0 45 4 45 8 0 15 -24 32 -45
32 -12 0 -26 -5 -33 -12z"/>
<path d="M534 1255 c-32 -49 11 -110 62 -86 50 23 34 111 -21 111 -15 0 -31
-10 -41 -25z"/>
<path d="M1557 1262 c-25 -28 -21 -69 7 -87 28 -19 58 -9 76 25 14 27 13 37
-10 60 -25 25 -52 26 -73 2z"/>
<path d="M2844 1263 c-17 -17 -16 -18 25 -21 50 -4 59 1 41 23 -17 20 -44 19
-66 -2z"/>
<path d="M3266 1258 c-21 -30 -20 -51 3 -79 16 -20 23 -22 47 -14 39 14 53 55
30 89 -21 33 -59 34 -80 4z"/>
<path d="M3835 1260 c-18 -20 -17 -20 28 -20 48 0 56 7 35 28 -18 18 -43 15
-63 -8z"/>
<path d="M4042 1268 c-21 -21 -13 -28 33 -28 25 0 45 4 45 8 0 15 -24 32 -45
32 -12 0 -26 -5 -33 -12z"/>
<path d="M4747 1262 c-40 -44 -2 -115 51 -96 22 8 28 16 30 49 3 29 -1 43 -14
52 -25 18 -48 16 -67 -5z"/>
<path d="M3020 3172 c0 -5 9 -17 20 -27 19 -17 21 -17 62 0 68 30 67 35 -10
35 -40 0 -72 -4 -72 -8z"/>
</g>
</svg>
