<svg version="1.0" xmlns="http://www.w3.org/2000/svg" width="85.333" height="85.333" fill="red" viewBox="0 0 64 64"><path d="M15.6 1c-1.6.5-4 1.9-5.3 3.2C0 13.8 5.7 30.5 19.7 31.7c17 1.4 23.3-22.2 7.9-29.6-4.5-2.2-7.3-2.5-12-1.1zm6.8 5.5c.3.8 1.3 1.5 2.2 1.5 2.9 0 .8 2.5-2.4 2.8-4.1.4-4 1.4.2 3.4 4.4 2.2 5.2 5.3 2 8.5C23.1 24 22 25.5 22 26c0 1.6-2.7 1.1-3.4-.5-.3-.8-1.3-1.5-2.1-1.5-1 0-1.5-.7-1.3-1.8.2-1.3 1.1-1.6 3.6-1.4 4.4.5 4.2-1.9-.3-4.1-4.1-1.9-4.8-5.9-1.5-7.9 1.1-.7 2-1.8 2-2.5 0-1.8 2.7-1.6 3.4.2z"/><path d="M44 16.3c-1.5.7-3.6 3.5-5.2 6.9C34 33.1 24.2 37.9 15 34.6c-2.5-.9-4.9-1.8-5.4-1.9-1.4-.3-2.7 5.5-2 9.3.7 4.1 2.8 8.5 6 12.3 1.3 1.5 2.6 4.3 3 6.2.6 3.4.7 3.5 5.6 3.5 4 0 5.1-.4 5.5-1.9.6-2.4 6.6-2.2 7.1.3.3 1.2 1.5 1.6 5.2 1.6 4.7 0 4.9-.1 5.5-3.3.4-1.7 2-4.7 3.6-6.5 1.6-1.8 3.5-4.5 4.3-6.1.9-1.6 2.4-3.1 3.6-3.4 1.7-.4 2-1.3 2-5.6 0-4.2-.3-5.1-1.8-5.1-1.1 0-3.3-2.3-5.6-5.8-3.2-4.9-3.7-6.2-3.2-9.5.7-4.1-.1-4.5-4.4-2.4zM48 32c0 2.1-2.4 2.8-3.5 1-.8-1.4.3-3 2.1-3 .8 0 1.4.9 1.4 2z"/></svg>