<?xml version="1.0" standalone="no"?>
<!DOCTYPE svg PUBLIC "-//W3C//DTD SVG 20010904//EN"
 "http://www.w3.org/TR/2001/REC-SVG-20010904/DTD/svg10.dtd">
<svg version="1.0" xmlns="http://www.w3.org/2000/svg"
 width="64.000000pt" height="64.000000pt" viewBox="0 0 64.000000 64.000000"
 preserveAspectRatio="xMidYMid meet">

<g transform="translate(0.000000,64.000000) scale(0.100000,-0.100000)"
fill="red" stroke="none">
<path d="M134 627 c-7 -19 11 -93 30 -122 15 -23 23 -25 86 -25 68 0 71 1 89
31 23 37 36 108 22 122 -6 6 -28 4 -61 -7 -46 -15 -55 -15 -96 -1 -55 18 -63
19 -70 2z"/>
<path d="M109 378 c-130 -156 -141 -298 -29 -356 39 -19 59 -22 165 -22 66 0
130 3 141 6 22 6 22 6 -7 61 -24 46 -29 67 -29 130 0 85 9 108 45 117 34 9 32
23 -16 79 l-41 47 -88 0 -89 0 -52 -62z m167 -50 c27 -26 31 -48 9 -48 -22 0
-18 -34 5 -55 28 -26 24 -64 -11 -105 -26 -31 -32 -33 -42 -19 -7 8 -20 18
-29 22 -26 9 -24 41 2 34 17 -4 20 0 20 27 0 19 -8 38 -20 49 -27 23 -25 49 7
86 15 17 29 31 31 31 2 0 15 -10 28 -22z"/>
<path d="M271 184 c0 -11 3 -14 6 -6 3 7 2 16 -1 19 -3 4 -6 -2 -5 -13z"/>
<path d="M460 310 c0 -6 -16 -18 -36 -28 l-36 -17 4 -77 c5 -89 32 -141 90
-172 35 -19 36 -19 71 3 56 35 80 82 85 170 l4 76 -36 17 c-20 10 -36 22 -36
28 0 5 -24 10 -55 10 -31 0 -55 -5 -55 -10z m125 -107 c0 -16 -74 -93 -89 -93
-7 0 -23 11 -36 25 -19 20 -21 28 -12 37 10 10 17 10 34 -1 19 -11 24 -10 52
18 30 30 51 36 51 14z"/>
</g>
</svg>
