<?xml version="1.0" standalone="no"?>
<!DOCTYPE svg PUBLIC "-//W3C//DTD SVG 20010904//EN"
 "http://www.w3.org/TR/2001/REC-SVG-20010904/DTD/svg10.dtd">
<svg version="1.0" xmlns="http://www.w3.org/2000/svg"
 width="64.000000pt" height="64.000000pt" viewBox="0 0 64.000000 64.000000"
 preserveAspectRatio="xMidYMid meet">

<g transform="translate(0.000000,64.000000) scale(0.100000,-0.100000)"
fill="red" stroke="none">
<path d="M106 610 c-65 -20 -117 -106 -101 -169 3 -14 17 -48 30 -76 20 -42
25 -69 28 -167 4 -125 16 -160 58 -173 45 -15 81 33 109 143 14 55 36 55 50 0
20 -79 35 -111 62 -131 23 -17 31 -19 53 -9 14 6 30 23 37 36 10 22 7 28 -21
52 -47 39 -73 99 -79 176 -6 92 6 108 102 139 42 13 76 29 76 34 0 35 -25 88
-54 113 -44 39 -94 48 -155 27 -43 -14 -52 -14 -90 0 -48 17 -63 17 -105 5z
m202 -117 c-6 -34 -100 -35 -106 0 -3 14 5 17 53 17 47 0 56 -3 53 -17z"/>
<path d="M440 392 c-65 -24 -70 -29 -70 -70 1 -89 29 -148 90 -190 44 -30 63
-28 106 10 49 43 74 99 74 170 l0 56 -62 21 c-73 25 -79 25 -138 3z m127 -109
c4 -12 -67 -63 -87 -63 -18 0 -44 50 -32 62 8 8 15 8 27 -2 12 -10 19 -10 37
3 26 18 49 18 55 0z"/>
</g>
</svg>
