<?xml version="1.0" standalone="no"?>
<!DOCTYPE svg PUBLIC "-//W3C//DTD SVG 20010904//EN"
 "http://www.w3.org/TR/2001/REC-SVG-20010904/DTD/svg10.dtd">
<svg version="1.0" xmlns="http://www.w3.org/2000/svg"
 width="2044.000000pt" height="2045.000000pt" viewBox="0 0 2044.000000 2045.000000"
 preserveAspectRatio="xMidYMid meet">

<g transform="translate(0.000000,2045.000000) scale(0.100000,-0.100000)"
fill="#000000" stroke="none">
<path d="M10315 18745 c-5 -2 -59 -9 -119 -14 -61 -6 -112 -15 -115 -20 -3 -4
-33 -12 -66 -15 -33 -4 -69 -13 -80 -20 -11 -7 -46 -20 -77 -30 -32 -10 -60
-22 -64 -27 -3 -5 -18 -9 -33 -9 -16 0 -34 -7 -41 -15 -7 -8 -18 -15 -24 -15
-7 0 -23 -11 -36 -25 -13 -14 -33 -25 -44 -25 -12 0 -32 -9 -46 -20 -14 -11
-28 -20 -32 -20 -4 0 -18 -10 -31 -22 -34 -32 -73 -64 -110 -90 -18 -13 -45
-38 -62 -55 -16 -18 -36 -33 -42 -33 -7 0 -13 -6 -13 -12 -1 -7 -19 -26 -40
-43 -21 -16 -39 -35 -40 -42 0 -16 -44 -63 -59 -63 -6 0 -14 -13 -17 -30 -4
-16 -10 -27 -15 -24 -5 3 -9 -2 -9 -10 0 -9 -4 -16 -10 -16 -5 0 -10 -6 -10
-14 0 -7 -14 -31 -31 -52 -17 -22 -39 -58 -49 -80 -10 -23 -23 -45 -29 -48 -6
-4 -11 -16 -11 -26 0 -10 -5 -20 -11 -22 -6 -2 -13 -19 -15 -37 -2 -19 -8 -39
-13 -45 -28 -34 -105 -293 -95 -319 2 -7 -2 -30 -11 -50 -12 -28 -15 -77 -14
-224 0 -188 5 -244 29 -338 54 -220 68 -265 81 -265 4 0 9 -13 12 -29 3 -16
13 -36 22 -44 8 -9 15 -25 15 -36 0 -25 45 -114 66 -132 8 -6 14 -18 14 -25 0
-13 23 -44 63 -86 9 -10 17 -25 17 -33 0 -8 4 -15 8 -15 4 0 34 -36 66 -80 33
-44 65 -80 72 -80 8 0 14 -5 14 -10 0 -15 44 -53 107 -92 28 -18 54 -41 56
-50 3 -10 12 -18 21 -18 9 0 16 -4 16 -9 0 -24 -179 -397 -627 -1309 -144
-293 -259 -532 -255 -530 4 2 81 47 170 102 90 54 165 96 168 93 3 -2 -80
-176 -182 -386 -154 -314 -191 -381 -206 -379 -13 2 -25 -9 -38 -32 -19 -33
-183 -371 -275 -565 -23 -49 -93 -193 -155 -320 -133 -273 -134 -276 -115
-268 8 3 15 3 15 0 0 -9 -65 -112 -72 -115 -5 -2 -8 -8 -8 -13 0 -15 -56 -100
-62 -94 -10 10 -60 -63 -62 -89 -3 -58 -7 -8 -10 140 -2 108 -9 178 -20 218
-9 32 -15 61 -12 63 2 2 23 -5 47 -16 23 -12 46 -21 51 -21 4 0 32 51 61 113
30 61 156 327 282 591 229 481 230 485 192 499 -5 1 41 104 101 227 60 124
108 226 107 228 -2 2 -135 -84 -296 -191 -337 -222 -1166 -772 -1344 -890
-398 -265 -874 -559 -1130 -697 -44 -24 -108 -58 -143 -77 -42 -23 -70 -32
-85 -28 -15 4 -18 4 -8 -3 15 -11 -50 -45 -159 -82 -66 -22 -83 -29 -133 -49
-15 -6 -40 -11 -55 -10 -24 1 -23 2 8 9 54 13 109 39 85 40 -12 0 -26 -5 -32
-11 -6 -6 -32 -12 -57 -13 -25 0 -46 -4 -46 -8 0 -4 -9 -5 -21 -3 -11 2 -30 1
-42 -4 -12 -4 -33 -4 -47 0 -14 4 -21 7 -17 8 5 1 2 7 -6 15 -10 11 -24 12
-58 5 -24 -4 -47 -8 -51 -9 -5 0 -8 -5 -8 -11 0 -6 9 -9 20 -6 11 3 18 1 14
-4 -7 -12 -41 -11 -49 1 -6 10 -68 4 -89 -8 -5 -3 -32 -6 -60 -8 l-51 -3 45
10 c120 27 402 100 455 119 33 12 80 27 105 35 90 27 138 48 306 131 143 70
392 207 519 285 17 10 48 28 69 40 21 11 44 25 50 30 30 25 115 80 146 96 19
9 41 23 48 30 7 7 18 13 23 13 6 0 8 4 4 10 -6 10 -36 2 -47 -14 -5 -8 -11 -7
-19 1 -9 9 -15 8 -26 -3 -15 -14 -38 -10 -28 6 3 5 -239 9 -537 10 -413 0
-544 4 -550 13 -6 9 -8 9 -8 0 0 -9 -17 -12 -55 -11 l-54 2 22 25 c88 100 151
166 292 306 88 88 183 180 210 205 505 456 1019 807 1615 1104 317 157 552
254 915 376 l200 67 27 49 c75 136 441 895 434 901 -12 13 -440 -89 -703 -167
-744 -222 -1408 -530 -2046 -947 -508 -332 -892 -648 -1333 -1095 -505 -512
-924 -1068 -1262 -1675 l-88 -158 -1722 -3 -1722 -2 0 -3780 0 -3780 1582 -2
1582 -3 89 -140 c452 -712 1058 -1410 1708 -1970 629 -542 1322 -984 2054
-1310 1937 -862 4149 -923 6120 -170 941 360 1804 888 2575 1573 104 93 375
350 436 414 185 195 302 323 404 443 305 358 595 752 813 1104 l37 61 1520 0
1520 0 0 3780 0 3780 -1507 0 -1508 0 -59 108 c-216 396 -543 878 -825 1215
-337 404 -772 835 -1143 1132 -171 138 -205 164 -352 270 -809 583 -1713 1002
-2681 1244 -290 72 -545 124 -545 110 0 -4 38 -85 84 -181 106 -220 231 -479
303 -631 l57 -117 70 -21 c1068 -306 2009 -824 2821 -1554 55 -49 187 -177
293 -284 157 -158 191 -198 187 -215 -5 -15 -4 -17 3 -7 11 16 27 -3 17 -20
-4 -6 -1 -9 8 -7 8 2 32 -16 55 -39 22 -24 36 -43 31 -43 -4 0 -20 12 -34 27
-19 21 -25 24 -25 11 0 -9 6 -19 13 -21 9 -4 9 -6 -1 -6 -8 -1 -16 7 -19 17
-6 24 -46 49 -51 33 -3 -9 -7 -9 -18 0 -8 6 -14 7 -14 2 0 -5 -113 -10 -277
-12 -178 -2 -280 -6 -284 -13 -4 -7 -9 -7 -13 1 -4 6 -17 11 -29 11 -17 0 -19
-2 -7 -10 8 -5 11 -12 8 -15 -4 -4 -16 0 -28 8 -16 11 -18 16 -8 21 7 3 3 3
-8 1 -14 -4 -24 0 -28 10 -3 8 -15 15 -26 15 -16 0 -7 -11 37 -47 32 -26 63
-52 69 -57 63 -62 346 -263 487 -345 155 -91 444 -241 464 -241 5 0 29 -11 55
-24 26 -13 99 -43 162 -67 64 -23 114 -44 112 -47 -3 -2 -31 6 -63 18 -52 20
-85 29 -148 43 -11 2 -14 2 -7 0 8 -3 11 -10 9 -17 -4 -9 3 -12 21 -9 l27 4
-25 -15 -25 -15 25 -1 c15 0 21 -3 14 -10 -11 -11 -56 -1 -48 11 5 9 -30 14
-73 10 -25 -2 -163 57 -163 70 0 5 -7 9 -16 9 -25 0 -94 42 -87 53 3 6 1 7 -6
3 -28 -18 -394 213 -631 398 -71 55 -238 195 -395 331 -322 279 -489 358 -690
327 -119 -19 -400 -130 -868 -343 -133 -61 -247 -113 -254 -116 -7 -3 -25 20
-43 56 -16 34 -28 61 -24 61 3 0 -3 12 -14 28 -10 15 -41 72 -69 127 -27 55
-98 196 -157 313 -99 196 -115 242 -86 242 5 0 10 5 10 11 0 6 -131 275 -291
597 -160 323 -344 697 -409 832 -65 135 -165 342 -223 460 -168 346 -204 427
-192 438 4 4 10 2 12 -5 2 -7 15 -1 32 15 59 57 97 88 114 95 9 3 17 13 17 20
0 8 11 19 25 25 14 6 24 15 23 19 -4 13 45 73 59 73 7 0 13 6 13 13 1 15 46
67 59 67 5 0 13 10 17 23 4 12 10 24 13 27 13 10 49 66 86 135 21 39 43 76 48
83 13 16 49 115 109 297 41 127 65 395 50 558 -14 152 -22 199 -34 214 -5 7
-7 20 -4 30 3 10 -1 31 -9 47 -8 15 -15 36 -15 45 0 9 -4 21 -9 26 -9 11 -37
94 -45 136 -3 15 -21 49 -40 77 -19 27 -32 52 -29 55 3 3 -4 12 -16 19 -12 7
-21 23 -21 36 0 12 -9 33 -20 45 -12 12 -23 32 -26 44 -4 13 -12 23 -20 23 -8
0 -14 9 -14 19 0 11 -4 21 -9 23 -5 2 -35 35 -68 73 -100 119 -282 285 -313
285 -6 0 -10 4 -10 8 0 5 -18 17 -40 27 -22 10 -40 21 -40 25 0 4 -15 13 -32
20 -18 8 -54 28 -79 47 -26 18 -55 33 -65 33 -11 0 -27 7 -37 15 -11 7 -37 17
-59 20 -22 4 -49 16 -59 26 -15 15 -34 19 -84 19 -36 0 -65 4 -65 9 0 9 -79
26 -193 41 -74 9 -270 13 -292 5z m337 -450 c63 -12 233 -67 278 -89 89 -44
165 -89 193 -112 16 -13 32 -24 36 -24 19 0 205 -195 249 -261 61 -92 126
-210 148 -269 90 -249 95 -549 13 -795 -41 -120 -76 -192 -148 -301 -61 -93
-215 -257 -235 -252 -6 2 -79 140 -163 308 -255 512 -288 583 -275 588 8 2 12
28 12 72 0 60 -2 68 -21 73 l-20 5 20 41 c27 51 27 51 -9 51 -25 0 -30 4 -30
25 0 14 14 44 30 67 17 23 37 64 45 91 18 61 20 169 3 217 -6 19 -14 85 -17
145 l-6 110 -67 3 -68 3 0 64 0 65 -80 0 -80 0 0 33 c0 17 3 61 6 97 l6 66 74
-7 c41 -4 88 -10 106 -14z m-258 -16 c3 -17 6 -60 6 -95 l0 -64 -80 0 -80 0 0
-65 0 -64 -67 -3 -68 -3 -1 -102 c-1 -62 -6 -114 -15 -135 -9 -20 -14 -68 -14
-123 0 -77 4 -98 27 -148 15 -32 34 -65 43 -73 8 -8 15 -29 15 -45 0 -24 -4
-29 -25 -29 -29 0 -30 -5 -10 -53 19 -46 19 -47 -5 -47 -18 0 -20 -7 -20 -70
0 -55 3 -70 15 -70 17 0 -10 -58 -259 -562 -91 -186 -171 -338 -177 -338 -12
0 -149 136 -187 185 -92 119 -184 302 -213 423 -45 185 -55 323 -35 466 17
114 18 121 61 251 89 268 314 530 565 657 25 13 47 26 50 29 6 6 152 60 160
59 3 -1 19 4 35 10 43 17 162 38 221 39 50 1 52 0 58 -30z m142 -1420 c11 -19
13 -117 13 -469 1 -245 -3 -450 -7 -456 -11 -16 -213 -19 -223 -2 -5 7 -9 208
-9 445 0 363 2 439 15 470 l15 38 91 -1 c86 -1 92 -2 105 -25z m-280 -916
c-11 -28 -349 78 -363 114 -3 7 63 151 146 320 83 170 166 338 183 375 l33 67
3 -432 c1 -237 0 -437 -2 -444z m427 725 c41 -84 120 -246 176 -360 106 -217
125 -268 99 -268 -8 0 -37 -12 -64 -26 -70 -37 -275 -89 -286 -72 -8 13 -12
878 -4 878 3 0 38 -69 79 -152z m-1218 -848 c3 -5 1 -10 -4 -10 -6 0 -11 5
-11 10 0 6 2 10 4 10 3 0 8 -4 11 -10z m2050 -847 c179 -358 325 -654 325
-656 0 -2 78 -163 173 -358 96 -195 198 -405 228 -467 47 -98 57 -112 75 -108
21 6 43 -37 293 -552 22 -46 38 -91 35 -100 -5 -13 -4 -14 4 -4 7 11 11 10 16
-4 3 -9 4 -19 2 -21 -2 -3 -127 -7 -278 -9 -150 -2 -280 -4 -288 -4 -13 0 -13
-1 0 -10 13 -8 12 -10 -2 -10 -10 0 -18 4 -18 10 0 5 -17 9 -37 8 -21 0 -49 2
-63 6 -14 3 -18 3 -10 0 25 -11 116 -85 204 -166 23 -21 47 -38 54 -38 13 0
110 45 297 137 50 25 105 51 123 58 l32 14 30 -59 c22 -44 26 -60 17 -68 -7
-5 -66 -35 -132 -66 -66 -31 -174 -83 -239 -115 l-119 -57 -33 35 c-35 39
-174 152 -504 409 -225 175 -452 361 -581 478 -43 38 -181 164 -309 279 -128
116 -236 212 -241 213 -5 2 -9 -229 -9 -562 0 -481 2 -567 14 -572 35 -13 29
-70 -8 -84 -17 -6 -23 -17 -24 -44 -1 -19 -11 -91 -22 -159 -12 -69 -27 -171
-35 -228 -7 -57 -16 -120 -20 -139 -4 -19 -10 -60 -14 -90 l-8 -55 -2 53 c-1
55 -16 96 -30 87 -5 -2 -12 12 -16 33 -8 41 -9 46 -24 152 -51 363 -53 374
-78 393 -29 23 -30 57 -1 81 l21 19 -6 345 c-4 190 -7 448 -7 572 0 219 -1
228 -20 233 -19 5 -20 14 -20 120 l0 116 -67 59 c-187 166 -333 284 -373 305
-35 17 -66 23 -141 25 -159 6 -325 -44 -586 -177 -76 -38 -139 -68 -141 -66
-2 2 5 21 16 42 11 21 176 353 367 738 191 385 351 703 357 706 6 4 34 -6 62
-21 28 -15 65 -30 81 -34 28 -6 115 -37 160 -57 11 -4 58 -15 105 -24 47 -9
101 -19 120 -23 l35 -7 6 -240 c4 -132 7 -463 8 -735 l2 -495 140 -122 c120
-106 142 -121 161 -114 l23 8 5 861 c3 473 8 864 13 868 4 4 7 0 7 -9 0 -21
28 -22 55 -3 11 7 54 16 95 20 41 4 93 15 115 26 22 10 60 21 85 24 25 4 63
15 85 25 22 10 48 21 59 25 11 4 16 12 12 21 -7 20 -1 19 20 -2 17 -17 18 -17
11 0 -19 47 -18 49 7 17 15 -19 173 -328 351 -687z m-967 383 l-3 -51 -109 -3
c-61 -1 -114 2 -119 7 -6 6 -7 44 -2 96 l7 86 96 -2 c59 -1 100 -6 104 -13 5
-7 8 -3 9 9 1 11 5 -2 11 -29 5 -27 8 -72 6 -100z m-3 -176 c12 -19 17 -780 6
-780 -6 0 -11 7 -11 16 0 9 -15 31 -34 50 -56 56 -131 41 -175 -35 l-21 -36 0
391 c0 215 3 394 7 397 11 11 221 8 228 -3z m1988 -2497 c-7 -2 -19 -2 -25 0
-7 3 -2 5 12 5 14 0 19 -2 13 -5z m62 -3 c-11 -5 -27 -9 -35 -9 -9 0 -8 4 5 9
11 5 27 9 35 9 9 0 8 -4 -5 -9z m-7443 -22 c-7 -7 -12 -8 -12 -2 0 14 12 26
19 19 2 -3 -1 -11 -7 -17z m6918 12 c0 -5 -4 -10 -9 -10 -6 0 -13 5 -16 10 -3
6 1 10 9 10 9 0 16 -4 16 -10z m3557 4 c-3 -3 -12 -4 -19 -1 -8 3 -5 6 6 6 11
1 17 -2 13 -5z m-10427 -24 c0 -5 -2 -10 -4 -10 -3 0 -8 5 -11 10 -3 6 -1 10
4 10 6 0 11 -4 11 -10z m7766 -204 c50 -97 96 -182 103 -189 8 -8 22 -5 56 11
25 12 49 22 54 22 4 0 0 -35 -10 -77 -36 -150 -34 -294 6 -453 6 -23 5 -23
-13 5 -41 64 -232 397 -232 406 0 5 5 9 10 9 6 0 -35 88 -91 196 -56 107 -100
197 -98 198 14 12 106 55 113 52 6 -1 51 -82 102 -180z m2812 150 c-7 -8 -15
-12 -17 -11 -5 6 10 25 20 25 5 0 4 -6 -3 -14z m-10698 -10 c0 -3 -4 -8 -10
-11 -5 -3 -10 -1 -10 4 0 6 5 11 10 11 6 0 10 -2 10 -4z m2744 -651 c-9 -14
-19 -23 -22 -20 -5 4 26 45 35 45 2 0 -4 -11 -13 -25z m2604 -85 l0 -35 -9 40
c-4 22 -8 51 -7 65 0 23 1 22 8 -5 4 -16 8 -46 8 -65z m-5388 70 c0 -5 -11
-10 -25 -10 -14 0 -25 5 -25 10 0 6 11 10 25 10 14 0 25 -4 25 -10z m11110
-40 c-8 -5 -19 -10 -25 -10 -5 0 -3 5 5 10 8 5 20 10 25 10 6 0 3 -5 -5 -10z
m-11510 -10 c0 -5 -10 -10 -22 -9 -22 0 -22 1 -3 9 11 5 21 9 23 9 1 1 2 -3 2
-9z m11470 -10 c14 -11 22 -20 19 -20 -9 0 -69 31 -69 36 0 10 27 2 50 -16z
m235 9 c11 -16 1 -19 -13 -3 -7 8 -8 14 -3 14 5 0 13 -5 16 -11z m-11218 -5
c-3 -3 -12 -4 -19 -1 -8 3 -5 6 6 6 11 1 17 -2 13 -5z m11098 -4 c3 -5 -1 -10
-9 -10 -8 0 -18 5 -21 10 -3 6 1 10 9 10 8 0 18 -4 21 -10z m-11705 -19 c-5
-11 -15 -23 -21 -27 -6 -3 -3 5 6 20 20 30 30 35 15 7z m567 13 c-3 -3 -12 -4
-19 -1 -8 3 -5 6 6 6 11 1 17 -2 13 -5z m-80 -20 c-3 -3 -12 -4 -19 -1 -8 3
-5 6 6 6 11 1 17 -2 13 -5z m11367 -10 c3 -8 2 -12 -4 -9 -6 3 -10 10 -10 16
0 14 7 11 14 -7z m-11569 -34 c3 -6 -1 -7 -9 -4 -18 7 -21 14 -7 14 6 0 13 -4
16 -10z m52 4 c-3 -3 -12 -4 -19 -1 -8 3 -5 6 6 6 11 1 17 -2 13 -5z m11578
-64 c3 -5 1 -10 -4 -10 -6 0 -11 5 -11 10 0 6 2 10 4 10 3 0 8 -4 11 -10z
m-12155 -1210 l0 -490 -1115 0 -1115 0 0 -460 0 -460 980 0 980 0 0 -485 0
-485 -977 0 -978 0 -3 -454 -2 -454 22 -6 c13 -3 537 -6 1166 -6 l1142 0 0
-490 0 -490 -1745 0 -1745 0 0 2385 0 2385 1695 0 1695 0 0 -490z m2088 -1408
l2 -1892 1098 0 c603 0 1103 0 1110 0 10 0 12 -101 10 -487 l-3 -488 -1687 -3
-1688 -2 0 2385 0 2385 578 -2 577 -3 3 -1893z m4202 -487 l0 -2385 -575 0
-575 0 -2 2375 c-2 1306 -1 2380 0 2385 3 7 204 10 578 10 l574 0 0 -2385z
m4785 1893 l0 -488 -697 0 -698 0 0 -1879 c0 -1034 -3 -1886 -6 -1895 -6 -14
-66 -16 -580 -16 l-574 0 0 1895 0 1895 -700 0 -700 0 0 490 0 490 1978 -2
1977 -3 0 -487z m4215 2 l0 -490 -1115 0 -1115 0 0 -460 0 -460 983 -2 982 -3
3 -460 c1 -253 0 -470 -3 -483 -5 -20 -11 -23 -43 -21 -20 1 -461 2 -980 1
l-942 -2 2 -457 3 -458 1163 -3 1162 -2 0 -490 0 -490 -1745 0 -1745 0 0 2385
0 2385 1695 0 1695 0 0 -490z m-15390 -5082 l0 -323 32 34 c44 47 101 71 173
71 99 0 164 -41 202 -125 15 -34 18 -78 21 -292 l4 -253 -61 0 -61 0 0 199 c0
315 -14 353 -137 359 -82 4 -119 -15 -149 -74 -16 -34 -20 -69 -24 -259 l-5
-220 -57 -3 -58 -3 0 606 0 605 60 0 60 0 0 -322z m3530 -80 l0 -403 123 123
122 122 82 0 81 0 -136 -134 -136 -134 147 -183 c81 -101 147 -187 147 -191 0
-4 -33 -8 -74 -8 l-73 0 -96 123 c-53 67 -107 135 -120 151 l-23 29 -22 -28
c-20 -25 -22 -39 -22 -151 l0 -124 -60 0 -60 0 0 605 0 605 60 0 60 0 0 -402z
m2355 235 c76 -39 115 -103 115 -185 -1 -76 -27 -124 -110 -201 -65 -60 -71
-69 -59 -84 44 -56 200 -243 203 -243 2 0 28 29 57 65 30 36 58 65 64 65 13 0
75 -61 75 -74 0 -6 -27 -42 -60 -81 -33 -39 -55 -74 -51 -80 4 -5 44 -56 89
-112 45 -56 82 -105 82 -108 0 -3 -33 -5 -74 -5 l-75 0 -57 70 c-32 39 -60 70
-61 70 -2 0 -25 -20 -51 -45 -26 -25 -76 -60 -112 -78 -58 -29 -74 -32 -150
-32 -70 0 -95 5 -141 26 -110 52 -179 158 -179 277 0 104 61 196 188 282 29
19 52 38 52 42 0 4 -18 31 -40 60 -81 106 -90 220 -26 307 50 67 111 93 211
88 45 -3 84 -11 110 -24z m3906 -29 c38 -35 28 -121 -16 -138 -81 -31 -149 40
-114 118 21 46 90 57 130 20z m3602 15 c51 -23 65 -94 27 -135 -41 -42 -119
-25 -140 32 -13 33 6 81 39 99 32 17 43 18 74 4z m-13847 -254 l0 -120 62 -3
62 -3 0 -54 0 -54 -61 -3 -62 -3 1 -253 c1 -139 -1 -259 -5 -267 -4 -11 -22
-15 -64 -15 l-59 0 0 270 0 270 -35 0 -35 0 0 55 0 55 35 0 35 0 0 125 0 126
63 -3 62 -3 1 -120z m1697 -290 c41 -99 82 -196 90 -215 l14 -35 44 95 c24 52
67 144 94 205 l51 110 67 3 c37 2 67 -1 67 -5 0 -12 -314 -652 -320 -652 -3
-1 -46 92 -95 205 -49 113 -92 207 -95 209 -4 2 -46 -87 -95 -198 -49 -111
-92 -206 -96 -211 -6 -6 -329 633 -329 650 0 2 31 4 68 4 l68 0 93 -205 c51
-113 95 -205 96 -205 2 0 45 99 96 220 51 121 96 216 100 212 3 -4 40 -88 82
-187z m-3812 149 c89 -50 149 -161 149 -276 l0 -48 -246 0 -247 0 6 -40 c24
-181 252 -245 354 -99 16 21 31 39 34 39 13 0 99 -52 99 -60 0 -22 -95 -109
-147 -135 -52 -27 -68 -30 -148 -30 -106 1 -161 21 -222 82 -52 52 -82 116
-94 198 -25 176 56 338 193 387 82 29 198 21 269 -18z m759 15 c25 -11 64 -39
88 -62 l42 -41 0 52 0 52 60 0 60 0 0 -325 0 -325 -60 0 -60 0 0 52 0 52 -42
-41 c-66 -63 -101 -78 -188 -78 -135 0 -228 67 -281 203 -29 75 -31 195 -6
270 58 166 242 257 387 191z m940 6 c17 -9 30 -18 30 -21 0 -2 -11 -27 -25
-55 -23 -45 -27 -48 -47 -38 -31 17 -123 6 -149 -17 -50 -45 -54 -66 -59 -299
l-5 -220 -57 -3 -58 -3 0 326 0 325 60 0 60 0 0 -52 0 -53 19 30 c51 84 155
119 231 80z m3192 -19 c73 -35 150 -118 175 -188 46 -134 9 -284 -93 -378 -69
-62 -133 -85 -239 -85 -71 0 -88 4 -147 33 -123 60 -190 169 -191 307 -1 157
95 284 253 336 14 5 61 7 105 5 62 -2 93 -9 137 -30z m833 19 l35 -14 -27 -56
c-27 -55 -36 -64 -48 -45 -3 6 -30 10 -59 10 -60 0 -95 -21 -124 -73 -14 -27
-18 -69 -22 -252 l-5 -220 -62 -3 -63 -3 0 326 0 325 66 0 66 0 -4 -45 c-4
-52 3 -56 28 -17 48 73 138 101 219 67z m1288 1 c35 -14 97 -73 97 -91 0 -6
-21 -21 -46 -34 l-47 -22 -26 25 c-37 35 -83 35 -110 0 -12 -15 -21 -33 -21
-40 0 -27 48 -65 130 -105 129 -62 172 -112 172 -199 0 -51 -27 -113 -64 -146
-57 -50 -81 -59 -159 -59 -67 0 -81 4 -125 30 -42 27 -94 84 -94 105 0 4 22
17 50 28 l49 21 39 -40 c34 -33 46 -39 82 -39 72 0 122 71 90 130 -6 11 -41
36 -78 56 -172 94 -202 125 -202 214 0 127 143 217 263 166z m3013 -19 c87
-44 137 -122 152 -233 13 -102 35 -94 -244 -94 l-244 0 0 -27 c0 -32 33 -109
58 -136 75 -84 235 -71 301 24 14 21 30 38 35 39 16 0 96 -50 96 -61 0 -5 -21
-32 -46 -59 -141 -151 -390 -143 -503 15 -53 74 -75 176 -60 281 20 144 92
233 219 275 14 5 61 7 105 5 63 -2 91 -8 131 -29z m865 -1 c29 -19 49 -44 67
-84 27 -57 27 -58 27 -302 l0 -245 -60 0 -60 0 -5 240 c-5 259 -8 273 -60 300
-42 22 -128 19 -167 -5 -62 -37 -67 -60 -73 -310 l-5 -225 -60 0 -60 0 -3 323
-2 322 65 0 65 0 0 -41 0 -41 29 31 c49 52 105 72 188 68 58 -3 81 -9 114 -31z
m793 0 c25 -15 56 -40 68 -56 12 -17 25 -30 30 -30 4 0 8 23 8 50 l0 50 61 0
60 0 -3 -387 c-4 -427 -7 -447 -69 -532 -84 -116 -321 -136 -450 -38 -52 40
-97 116 -105 181 l-7 46 60 0 61 0 11 -44 c23 -93 100 -142 211 -134 116 8
157 69 167 246 3 62 3 112 -1 112 -4 0 -19 -14 -33 -30 -14 -17 -46 -43 -72
-58 -40 -23 -56 -27 -126 -27 -96 1 -139 19 -206 85 -67 67 -93 139 -94 260 0
84 3 102 29 158 34 73 104 142 169 166 66 24 173 16 231 -18z m1451 15 c23
-10 53 -33 68 -50 49 -58 57 -111 57 -368 l0 -233 -60 0 -60 0 0 205 c0 308
-14 346 -133 353 -77 4 -122 -18 -151 -74 -19 -35 -21 -60 -24 -261 l-3 -223
-60 0 -59 0 0 325 0 325 60 0 60 0 0 -42 0 -42 38 36 c20 21 53 44 72 52 49
21 146 20 195 -3z m851 -14 c29 -14 66 -43 83 -64 38 -45 71 -146 71 -214 l0
-49 -245 0 -245 0 0 -24 c0 -35 20 -87 48 -125 73 -98 242 -91 313 14 13 19
28 35 33 35 14 0 96 -50 96 -59 0 -4 -16 -27 -36 -50 -139 -161 -403 -160
-513 3 -49 72 -63 123 -63 221 0 120 26 190 96 260 66 66 123 86 231 82 62 -3
91 -9 131 -30z m813 4 c93 -48 150 -143 159 -263 l5 -68 -248 0 -248 0 6 -46
c6 -61 50 -123 107 -152 86 -45 201 -14 255 68 11 16 24 30 28 30 14 0 97 -51
97 -60 0 -25 -95 -110 -152 -136 -83 -37 -207 -41 -279 -7 -253 116 -245 548
11 643 75 28 196 23 259 -9z m790 18 c37 -13 37 -16 10 -80 -17 -39 -26 -48
-38 -43 -9 4 -37 9 -62 12 -64 5 -101 -16 -130 -75 -22 -45 -24 -62 -27 -260
l-4 -213 -59 0 -59 0 0 325 0 325 59 0 60 0 3 -52 3 -52 27 41 c45 69 137 100
217 72z m1152 -1 c58 -19 91 -49 118 -107 26 -56 26 -58 26 -301 l0 -245 -60
0 -60 0 -5 240 c-5 259 -8 273 -60 300 -42 22 -128 19 -167 -5 -62 -37 -67
-60 -73 -310 l-5 -225 -60 0 -60 0 -3 323 -2 322 65 0 65 0 0 -42 1 -43 21 29
c46 62 173 94 259 64z m827 -12 c18 -9 51 -35 73 -57 21 -21 40 -39 42 -39 2
0 3 21 3 48 l-1 47 63 3 62 3 0 -347 c0 -372 -6 -445 -47 -532 -42 -91 -140
-142 -268 -142 -164 0 -292 100 -311 243 l-7 47 60 0 59 0 11 -43 c26 -95 96
-141 204 -135 82 4 114 24 146 89 18 36 22 62 23 149 1 58 1 108 1 111 -1 3
-21 -13 -45 -37 -109 -104 -294 -94 -396 22 -104 119 -119 320 -35 454 31 50
98 106 149 124 53 20 169 15 214 -8z m-5206 -291 c1 -162 2 -307 2 -322 1 -27
-1 -28 -61 -31 l-63 -3 0 326 0 325 60 0 60 0 2 -295z m3628 -30 l0 -325 -60
0 -60 0 0 325 0 325 60 0 60 0 0 -325z m-1297 -808 c-266 -345 -707 -802
-1113 -1153 -545 -470 -1168 -884 -1805 -1199 -229 -113 -291 -141 -520 -237
-1171 -487 -2404 -647 -3555 -462 -1773 285 -3528 1295 -4825 2775 -117 134
-253 298 -267 324 -8 13 605 15 6062 15 l6071 0 -48 -63z"/>
<path d="M10442 12000 c0 -14 2 -19 5 -12 2 6 2 18 0 25 -3 6 -5 1 -5 -13z"/>
<path d="M10441 11954 c0 -11 3 -14 6 -6 3 7 2 16 -1 19 -3 4 -6 -2 -5 -13z"/>
<path d="M9874 5501 c-37 -22 -59 -77 -49 -120 7 -34 81 -141 97 -141 10 0 70
41 93 65 44 43 57 107 34 159 -24 52 -118 72 -175 37z"/>
<path d="M9814 5015 c-99 -74 -119 -105 -119 -182 0 -54 4 -66 31 -100 51 -63
89 -83 155 -83 73 0 97 11 181 78 l68 54 -87 107 c-48 58 -101 123 -118 143
-16 21 -32 37 -35 37 -3 0 -37 -24 -76 -54z"/>
<path d="M1420 5111 c-75 -23 -124 -70 -136 -130 l-6 -31 182 0 182 0 -7 28
c-10 45 -51 98 -87 114 -43 20 -97 28 -128 19z"/>
<path d="M2199 5087 c-29 -16 -54 -40 -74 -72 -28 -45 -30 -56 -30 -140 0 -84
2 -95 30 -140 42 -68 99 -97 182 -92 103 7 160 57 188 164 22 84 8 163 -43
232 -52 70 -169 92 -253 48z"/>
<path d="M6265 5086 c-121 -53 -169 -194 -107 -317 37 -74 92 -111 172 -117
104 -8 188 42 226 134 33 79 9 199 -52 256 -59 55 -168 75 -239 44z"/>
<path d="M11396 5086 c-40 -24 -86 -87 -86 -118 0 -17 15 -18 180 -18 165 0
180 1 180 18 0 30 -44 95 -79 119 -48 33 -141 32 -195 -1z"/>
<path d="M13103 5091 c-48 -23 -99 -86 -110 -140 -20 -98 10 -217 69 -266 60
-51 174 -57 241 -14 67 44 97 111 97 214 -1 169 -150 272 -297 206z"/>
<path d="M15401 5109 c-51 -15 -79 -38 -106 -84 -45 -77 -48 -75 155 -75 137
0 180 3 180 13 0 6 -9 31 -19 54 -34 73 -130 115 -210 92z"/>
<path d="M16182 5093 c-41 -20 -80 -69 -88 -111 l-6 -32 182 0 182 0 -7 28
c-11 45 -51 98 -88 115 -45 22 -132 21 -175 0z"/>
<path d="M19003 5091 c-118 -54 -158 -247 -75 -365 94 -136 305 -102 358 57
20 59 15 166 -9 212 -21 42 -66 85 -104 101 -45 20 -121 17 -170 -5z"/>
<path d="M5240 12759 c0 -7 -8 -18 -17 -25 -16 -12 -16 -15 -3 -24 8 -5 22 -9
30 -9 11 1 10 3 -2 6 -22 6 -22 8 -2 38 10 15 12 25 5 25 -6 0 -11 -5 -11 -11z"/>
<path d="M6575 12750 c-4 -6 -11 -8 -16 -5 -5 4 -9 1 -9 -4 0 -6 -7 -11 -15
-11 -8 0 -15 -5 -15 -10 0 -12 55 14 65 30 3 5 4 10 1 10 -3 0 -8 -5 -11 -10z"/>
<path d="M15600 12730 c0 -5 5 -10 11 -10 5 0 7 5 4 10 -3 6 -8 10 -11 10 -2
0 -4 -4 -4 -10z"/>
<path d="M15670 12711 c0 -6 4 -13 10 -16 6 -3 7 1 4 9 -7 18 -14 21 -14 7z"/>
<path d="M7926 12153 c-6 -14 -5 -15 5 -6 7 7 10 15 7 18 -3 3 -9 -2 -12 -12z"/>
<path d="M15920 11990 c0 -5 7 -10 16 -10 8 0 12 -4 9 -10 -3 -5 6 -12 20 -16
14 -3 25 -10 25 -15 0 -13 -14 -11 -28 3 -6 6 -15 8 -19 4 -9 -9 17 -27 36
-23 23 4 25 28 2 34 -12 3 -21 9 -21 14 0 4 -9 13 -20 19 -14 7 -20 7 -20 0z"/>
<path d="M5260 11970 c0 -5 5 -10 10 -10 6 0 10 5 10 10 0 6 -4 10 -10 10 -5
0 -10 -4 -10 -10z"/>
<path d="M5350 11960 c-18 -12 -2 -12 25 0 13 6 15 9 5 9 -8 0 -22 -4 -30 -9z"/>
<path d="M15890 11960 c8 -5 22 -9 30 -9 10 0 8 3 -5 9 -27 12 -43 12 -25 0z"/>
<path d="M5213 11943 c9 -2 25 -2 35 0 9 3 1 5 -18 5 -19 0 -27 -2 -17 -5z"/>
</g>
</svg>
