<?xml version="1.0" standalone="no"?>
<!DOCTYPE svg PUBLIC "-//W3C//DTD SVG 20010904//EN"
 "http://www.w3.org/TR/2001/REC-SVG-20010904/DTD/svg10.dtd">
<svg version="1.0" xmlns="http://www.w3.org/2000/svg"
 width="64.000000pt" height="64.000000pt" viewBox="0 0 64.000000 64.000000"
 preserveAspectRatio="xMidYMid meet">

<g transform="translate(0.000000,64.000000) scale(0.100000,-0.100000)"
fill="red" stroke="none">
<path d="M118 630 c-147 -44 -152 -222 -13 -394 40 -49 169 -156 188 -156 4 0
1 14 -8 30 -24 46 -31 177 -12 221 14 34 21 39 111 69 93 31 98 31 140 17 25
-8 47 -13 50 -9 3 3 6 31 6 62 0 63 -22 106 -73 144 -41 30 -134 29 -177 -2
l-31 -23 -51 25 c-53 27 -83 30 -130 16z"/>
<path d="M391 343 l-73 -25 4 -88 c3 -74 8 -94 30 -128 23 -33 108 -102 128
-102 20 0 105 69 128 102 22 34 27 54 30 128 l4 88 -78 26 c-44 14 -84 26 -89
25 -6 0 -43 -12 -84 -26z m177 -99 c3 -23 -72 -124 -93 -124 -21 0 -75 50 -75
70 0 25 24 31 49 13 12 -8 23 -13 25 -12 1 2 15 21 31 42 30 40 58 45 63 11z"/>
</g>
</svg>
