<svg version="1.0" xmlns="http://www.w3.org/2000/svg" width="85.333" height="85.333" fill="red" viewBox="0 0 64 64"><path d="M14.3 2.5C10.6 4.1 8 8.5 8 13.4c0 5.5.8 6.6 5 6.6 3.6 0 3.8-.2 4.6-4.2 1.3-6.1 3-5.8 4.5.8l1.3 5.7 1-3.1c1.6-4.4 2.4-4.8 3.6-1.8.8 2.3 1.5 2.7 4.2 2.4 2.7-.3 3.3-.8 4.2-4.2 1.1-3.8 3.6-6.2 3.6-3.4 0 .7.5 3.1 1.1 5.3l1.1 3.9 1.4-3.3c1.4-3.4 3.4-3.4 3.4 0 0 1.5.7 1.9 3.9 1.9 4.3 0 5.1-1 5.1-6.6 0-5.1-2.6-9.3-6.7-11.1-4.8-1.9-9.4-1-13.9 2.9l-3.5 3.1-2.7-2.6C24.4 1.1 19.8.1 14.3 2.5z"/><path d="M19 20.2c0 1.4-.9 1.8-4 1.8-3.2 0-3.9.3-3.3 1.3.9 1.5 12 11.6 17.1 15.4l3.2 2.5 3.3-2.5c5-3.8 16.1-13.9 17-15.4.6-.9.2-1.3-1.3-1.3-1.1 0-2 .7-2 1.5 0 2.1-2.8 1.9-3.2-.3-.3-1.1-.8-.4-1.7 2-1.9 5.8-3 5.1-4.6-3.1-.6-2.8-.9-3.1-1.7-1.8-.5 1-2.1 1.7-3.9 1.7-1.7 0-3.2.6-3.5 1.5-.8 2.1-3.2 1.9-3.7-.3-.2-1.1-.7-.6-1.3 1.7-1.4 4.8-3.1 5-4 .4-.8-4.6-2.3-7.8-2.4-5.1zM0 21c0 .5 2.3 1 5.1 1 3.1 0 4.8-.4 4.4-1-.8-1.3-9.5-1.3-9.5 0zM54.5 21c-.4.6 1.3 1 4.4 1 2.8 0 5.1-.5 5.1-1 0-.6-2-1-4.4-1-2.5 0-4.8.4-5.1 1zM1.8 30.6c-1.3 1.2 4.6 12.2 9 16.6 4.1 4.3 5.1 4.8 8.9 4.8 3.6 0 4.3-.3 4.3-2 0-2.2-2-7-3-7-.4 0-2.8-1.4-5.4-3.1-5.7-3.8-7.1-3.1-2.8 1.4 3.5 3.6 3.9 4.7 1.8 4.7-2 0-7.5-6.6-9.7-11.6-1.9-4.5-2.1-4.8-3.1-3.8zM59.1 34.3C56.9 39.4 51.4 46 49.4 46c-2.1 0-1.7-1.1 1.8-4.7 4.3-4.5 2.9-5.2-2.9-1.5-6.7 4.4-8.3 6.1-8.3 9.4 0 2.6.2 2.8 4.3 2.8 3.8 0 4.8-.5 8.9-4.8 4.8-4.8 10.4-15.7 8.7-16.7-.5-.4-1.8 1.4-2.8 3.8zM15 58.5V63h11v-9H15v4.5zm9 0c0 .8-.7 1.5-1.5 1.5s-1.5-.7-1.5-1.5.7-1.5 1.5-1.5 1.5.7 1.5 1.5zM38 58.5V63h11v-9H38v4.5zm5 0c0 .8-.7 1.5-1.5 1.5s-1.5-.7-1.5-1.5.7-1.5 1.5-1.5 1.5.7 1.5 1.5z"/></svg>