<?xml version="1.0" standalone="no"?>
<!DOCTYPE svg PUBLIC "-//W3C//DTD SVG 20010904//EN"
 "http://www.w3.org/TR/2001/REC-SVG-20010904/DTD/svg10.dtd">
<svg version="1.0" xmlns="http://www.w3.org/2000/svg"
 width="227.000000pt" height="84.000000pt" viewBox="0 0 227.000000 84.000000"
 preserveAspectRatio="xMidYMid meet">

<g transform="translate(0.000000,84.000000) scale(0.100000,-0.100000)"
fill="#220000" stroke="none">
<path d="M0 420 l0 -420 1135 0 1135 0 0 420 0 420 -1135 0 -1135 0 0 -420z
m475 290 l0 -55 -122 -3 -123 -3 0 -49 0 -50 110 0 110 0 0 -50 0 -50 -110 0
-110 0 0 -50 0 -49 128 -3 127 -3 0 -55 0 -55 -190 0 -190 0 -3 255 c-1 140 0
260 3 268 3 10 45 12 187 10 l183 -3 0 -55z m233 -152 l2 -208 121 0 120 0 -3
-57 -3 -58 -180 0 -180 0 -3 255 c-1 140 0 261 3 268 3 9 22 12 62 10 l58 -3
3 -207z m462 -58 l0 -269 -57 3 c-32 2 -61 4 -65 5 -10 1 -11 515 -1 524 3 4
33 7 65 7 l58 0 0 -270z m530 210 l0 -60 -75 0 -75 0 -2 -207 -3 -208 -60 0
-60 0 -3 207 -2 207 -78 3 -77 3 -3 44 c-6 75 -17 71 223 71 l215 0 0 -60z
m468 -2 l3 -58 -126 0 -125 0 0 -50 0 -50 110 0 110 0 0 -50 0 -50 -110 0
-110 0 0 -50 0 -50 130 0 131 0 -3 -57 -3 -58 -190 0 -190 0 -3 255 c-1 140 0
260 3 268 3 10 45 12 187 10 l183 -3 3 -57z m-1700 -561 c-2 -16 3 -23 20 -25
18 -3 22 -9 21 -40 -1 -35 -2 -36 -8 -8 -7 32 -30 48 -32 22 -3 -29 -4 -34
-11 -42 -5 -4 -8 23 -8 60 0 44 4 65 10 61 6 -4 10 -16 8 -28z m392 -9 c0 -33
3 -39 12 -30 19 19 29 14 16 -7 -9 -15 -9 -23 1 -35 8 -10 9 -16 3 -16 -6 0
-16 8 -21 18 -10 16 -10 16 -11 0 0 -10 -4 -18 -10 -18 -6 0 -10 28 -10 65 0
37 4 65 10 65 6 0 10 -19 10 -42z m266 17 c4 -8 1 -21 -5 -29 -8 -10 -8 -16 2
-25 8 -6 18 -7 22 -3 5 4 6 0 2 -9 -3 -9 -1 -21 4 -26 5 -5 -9 -9 -35 -11 -31
-1 -46 3 -50 13 -6 18 2 45 15 45 4 0 6 7 3 15 -9 21 3 45 21 45 9 0 18 -7 21
-15z m-707 -49 c-5 -6 -10 -21 -10 -35 -1 -21 -3 -19 -8 9 -4 19 -5 43 -3 53
4 17 5 17 18 0 8 -11 9 -22 3 -27z m-226 0 c7 -19 -1 -26 -30 -26 -15 0 -22
-4 -17 -11 3 -6 15 -9 25 -6 11 3 19 1 19 -5 0 -5 -12 -8 -27 -6 -28 3 -40 25
-29 54 7 18 52 18 59 0z m97 -22 c0 -34 -1 -35 -32 -32 -54 5 -53 68 2 68 28
0 30 -3 30 -36z m68 24 c-9 -7 -19 -24 -21 -38 -3 -18 -5 -14 -6 13 -1 32 2
37 21 37 19 0 20 -1 6 -12z m226 -7 l6 24 14 -24 14 -24 6 21 c4 12 11 22 17
22 5 0 1 -16 -8 -35 -17 -35 -17 -35 -29 -13 l-13 23 -9 -25 -9 -25 -17 32
c-21 42 -20 54 3 24 l18 -24 7 24z m151 -16 c0 -27 -3 -30 -30 -30 -21 0 -31
5 -33 18 -6 33 6 49 35 45 24 -3 28 -8 28 -33z m73 28 c-12 -3 -18 -14 -18
-34 0 -16 -4 -29 -10 -29 -5 0 -10 16 -10 35 0 32 3 35 28 34 16 -1 20 -3 10
-6z m142 -3 c-12 -8 -12 -10 3 -16 24 -9 22 -44 -3 -44 -11 0 -20 4 -20 10 0
5 7 7 15 4 8 -4 15 -2 15 4 0 5 -7 12 -15 16 -21 8 -19 36 3 36 14 0 15 -2 2
-10z m353 -4 c7 -19 -1 -26 -30 -26 -15 0 -22 -4 -17 -11 3 -6 15 -9 25 -6 11
3 19 1 19 -5 0 -5 -12 -8 -27 -6 -28 3 -40 25 -29 54 7 18 52 18 59 0z m95
-23 c2 -19 -1 -33 -7 -33 -6 0 -11 14 -11 31 0 38 -24 35 -28 -4 -4 -36 -22
-24 -22 14 0 28 2 30 33 27 28 -3 32 -7 35 -35z m102 -5 c0 -24 -4 -49 -9 -56
-10 -17 -53 -12 -59 6 -3 11 -1 11 17 0 18 -11 23 -11 31 2 7 12 3 16 -18 20
-49 9 -42 70 8 70 29 0 30 -2 30 -42z m50 5 c0 -20 -3 -33 -7 -29 -10 10 -11
66 -1 66 4 0 8 -16 8 -37z m98 -2 c2 -21 0 -31 -7 -26 -6 3 -11 18 -11 31 0
35 -23 26 -31 -12 -6 -27 -7 -26 -8 9 -1 36 1 38 27 35 23 -2 28 -8 30 -37z
m91 26 c14 -17 4 -27 -26 -27 -15 0 -22 -4 -17 -11 3 -6 15 -9 25 -6 11 3 19
1 19 -5 0 -18 -55 -4 -58 15 -8 42 31 65 57 34z m94 -1 c7 -19 -1 -26 -30 -26
-15 0 -22 -4 -17 -11 3 -6 15 -9 25 -6 11 3 19 1 19 -5 0 -5 -12 -8 -27 -6
-28 3 -40 25 -29 54 7 18 52 18 59 0z m65 3 c-10 -5 -18 -22 -18 -36 0 -36
-15 -19 -16 18 0 25 3 29 25 29 23 -1 24 -2 9 -11z m49 -41 c-2 -13 -4 -5 -4
17 -1 22 1 32 4 23 2 -10 2 -28 0 -40z m100 12 c1 -34 1 -34 -5 -5 -4 17 -14
30 -22 30 -8 0 -18 -13 -21 -30 -6 -29 -7 -28 -8 8 -1 36 1 38 27 35 23 -3 27
-8 29 -38z m101 -12 c-3 -49 -5 -53 -29 -56 -17 -2 -29 3 -32 12 -7 19 4 21
20 5 6 -6 16 -8 22 -5 19 12 12 25 -16 28 -51 6 -44 68 7 68 l31 0 -3 -52z"/>
<path d="M1095 149 c-10 -15 3 -25 16 -12 7 7 7 13 1 17 -6 3 -14 1 -17 -5z"/>
<path d="M1080 80 c0 -11 6 -20 13 -20 19 0 27 10 20 26 -8 21 -33 17 -33 -6z"/>
<path d="M150 100 c0 -5 7 -10 15 -10 8 0 15 5 15 10 0 6 -7 10 -15 10 -8 0
-15 -4 -15 -10z"/>
<path d="M234 95 c-4 -9 -2 -21 4 -27 15 -15 44 -1 40 19 -4 23 -36 29 -44 8z"/>
<path d="M684 95 c-4 -9 -2 -21 4 -27 15 -15 44 -1 40 19 -4 23 -36 29 -44 8z"/>
<path d="M1260 100 c0 -5 7 -10 15 -10 8 0 15 5 15 10 0 6 -7 10 -15 10 -8 0
-15 -4 -15 -10z"/>
<path d="M1444 95 c-7 -18 3 -35 21 -35 15 0 24 19 18 38 -6 17 -32 15 -39 -3z"/>
<path d="M1700 100 c0 -5 7 -10 15 -10 8 0 15 5 15 10 0 6 -7 10 -15 10 -8 0
-15 -4 -15 -10z"/>
<path d="M1790 100 c0 -5 7 -10 15 -10 8 0 15 5 15 10 0 6 -7 10 -15 10 -8 0
-15 -4 -15 -10z"/>
<path d="M2097 97 c-3 -8 -2 -20 3 -27 11 -18 42 -4 38 17 -4 22 -34 29 -41
10z"/>
</g>
</svg>
