<?xml version="1.0" encoding="UTF-8"?>
<svg version="1.1" xmlns="http://www.w3.org/2000/svg" width="41" height="36">
<path d="M0 0 C1 1 1 1 1.0625 4.5625 C1.041875 5.696875 1.02125 6.83125 1 8 C0.030625 8.350625 -0.93875 8.70125 -1.9375 9.0625 C-5.39434602 10.75003667 -5.39434602 10.75003667 -5.875 14.6875 C-5.91625 15.780625 -5.9575 16.87375 -6 18 C-4.081875 17.938125 -4.081875 17.938125 -2.125 17.875 C0.0546875 17.8046875 0.0546875 17.8046875 2 18 C4 20 4 20 4.265625 22.93359375 C4.26046875 24.08988281 4.2553125 25.24617188 4.25 26.4375 C4.25515625 27.59121094 4.2603125 28.74492187 4.265625 29.93359375 C4 33 4 33 2 36 C-0.59426798 36.27668225 -2.91263646 36.37295242 -5.5 36.3125 C-6.18964844 36.31572266 -6.87929688 36.31894531 -7.58984375 36.32226562 C-12.73287408 36.26712592 -12.73287408 36.26712592 -15 34 C-15.4584299 30.10273462 -15.3239786 26.17108969 -15.3125 22.25 C-15.32861328 21.16460938 -15.34472656 20.07921875 -15.36132812 18.9609375 C-15.36480425 13.27399236 -15.360245 8.83431474 -12 4 C-7.97998376 0.60531962 -5.26566388 -0.6122865 0 0 Z " fill="#B71F1D" transform="translate(37,0)"/>
<path d="M0 0 C1 1 1 1 1.0625 4.0625 C1.041875 5.031875 1.02125 6.00125 1 7 C-0.423125 7.495 -0.423125 7.495 -1.875 8 C-5.27006117 10.17283915 -5.49193978 10.51890422 -6.375 14.1875 C-6.58125 15.445625 -6.7875 16.70375 -7 18 C-6.36191406 17.98839844 -5.72382813 17.97679688 -5.06640625 17.96484375 C-4.24011719 17.95582031 -3.41382813 17.94679688 -2.5625 17.9375 C-1.73878906 17.92589844 -0.91507813 17.91429688 -0.06640625 17.90234375 C2 18 2 18 3 19 C3.12653198 21.49238569 3.18519825 23.94470441 3.1875 26.4375 C3.19974609 27.13166016 3.21199219 27.82582031 3.22460938 28.54101562 C3.22989842 30.36220901 3.12169207 32.1828692 3 34 C1 36 1 36 -2.1875 36.23046875 C-3.445625 36.21628906 -4.70375 36.20210937 -6 36.1875 C-7.258125 36.18105469 -8.51625 36.17460938 -9.8125 36.16796875 C-13 36 -13 36 -15 35 C-15.17509799 30.64634573 -15.2811281 26.29360303 -15.375 21.9375 C-15.42527344 20.70837891 -15.47554687 19.47925781 -15.52734375 18.21289062 C-15.69313554 7.96143185 -15.69313554 7.96143185 -12.1640625 3.69140625 C-8.48672124 0.05918925 -5.04936294 -0.21953752 0 0 Z " fill="#B71F1D" transform="translate(15,0)"/>
</svg>
