<svg version="1.0" xmlns="http://www.w3.org/2000/svg" width="85.333" height="85.333" fill="red" viewBox="0 0 64 64"><path d="M29.3 2.3c-.3.4.2 2.8 1.2 5.3l1.7 4.4h10.3l1.9-4.6c1-2.5 1.5-4.8 1.1-5.2-1-1-15.5-1-16.2.1zM25.8 17.3c-6.7 5-11.3 15-10.1 22.2.5 3.1.7 3.3 4.2 2.8 2.1-.3 6.2.4 9.9 1.5 6.5 2.1 8.1 1.3 4.2-2.1-1.9-1.6-2.7-3.7-1.3-3.7.3 0 1.4.7 2.4 1.6C37 41.3 40 40.9 40 39c0-.6-1.4-1.6-3-2.2-4.4-1.5-5.4-4-3-7.1 1.1-1.4 2-3 2-3.6 0-1.8 1.2-1.2 4.1 2 3.1 3.5 2.9 5.7-.3 3.5-2-1.5-4.8-1.2-4.8.5 0 .5 1.7 1.7 3.7 2.6 4.7 2.3 5.3 4.8 1.8 8-2.9 2.8-2.6 3.5 2.5 5.2 5 1.7 13.4-.3 14.9-3.6 1.4-3 1.4-11.3 0-15-1.6-4.3-5.6-9.7-9.1-12.3-2.8-2-4.5-2.4-11.2-2.5-7.1 0-8.2.3-11.8 2.8zM0 52.5V62h11V43H0v9.5zm8-6.1c0 2.8-2.2 3.9-4.5 2.3C1.3 47 2.6 44 5.6 44c1.9 0 2.4.5 2.4 2.4z"/><path d="M14.8 45.7c-1.5.4-1.8 1.6-1.8 6.3v5.9l7.3 2.2C33 63.9 34.2 63.8 47.6 58c14-6 17-7.8 15.7-9.1-1.7-1.7-14.5 2-16.9 5l-2.1 2.5-9.5-1.8c-9.6-1.8-12.8-2.9-11.5-4.2.4-.4 5.1.2 10.4 1.4 6.4 1.5 10 1.9 10.7 1.2 1.5-1.5.5-2-10-5.1-8.9-2.7-15.2-3.4-19.6-2.2z"/></svg>